g ___04
v -0.0017 4.33681e-19 0 1 0.937255 0
v 0.0008 0.00133333 0 1 0.937255 0
v 0.0008 -0.0015 0 1 0.937255 0
v 0.0008 0.00133333 0.01 1 0.937255 0
v -0.0017 4.33681e-19 0.01 1 0.937255 0
v 0.0008 -0.0015 0.01 1 0.937255 0
vn -0 -0 -1
vn -0.470588 0.882353 0
vn 1 -0 -0
vn -0.514496 -0.857493 0
vn 0 0 1
vt 0.0165 -0.0235
vt 0.0178333 -0.026
vt 0.015 -0.026
vt -0.00141667 0
vt -0.00141667 -0.01
vt 0.00141667 -0.01
vt 0.00141667 0
vt 0 -0.00141667
vt -0.01 -0.00141667
vt -0.01 0.00141667
vt 0 0.00141667
vt 0.00145774 0
vt 0.00145774 -0.01
vt -0.00145774 -0.01
vt -0.00145774 0
vt 0.015 -0.026
vt 0.0178333 -0.026
vt 0.0165 -0.0235
f 1/1/1 2/2/1 3/3/1
f 4/4/2 2/5/2 1/6/2
f 1/6/2 5/7/2 4/4/2
f 6/8/3 3/9/3 2/10/3
f 2/10/3 4/11/3 6/8/3
f 5/12/4 1/13/4 3/14/4
f 3/14/4 6/15/4 5/12/4
f 6/16/5 4/17/5 5/18/5
