g ___05
v 0.000958152 -0.00153434 0 0.494118 0.494118 0.52549
v -0.00104185 -0.00153434 0 0.494118 0.494118 0.52549
v -0.00104185 0.00146566 0 0.494118 0.494118 0.52549
v 0.000958152 0.00146566 0 0.494118 0.494118 0.52549
v 0.000958152 0.00146566 0.01 0.494118 0.494118 0.52549
v -0.00104185 0.00146566 0.01 0.494118 0.494118 0.52549
v -0.00104185 -0.00153434 0.01 0.494118 0.494118 0.52549
v 0.000958152 -0.00153434 0.01 0.494118 0.494118 0.52549
vn -0 -0 -1
vn -0 1 -0
vn 0 0 1
vn 1 0 -0
vn 0 -1 0
vn -1 0 0
vt 0.003 -0.026
vt 0.003 -0.024
vt 0.006 -0.024
vt 0.006 -0.026
vt 0 0.001
vt 0.01 0.001
vt 0.01 -0.001
vt -0 -0.001
vt 0.006 -0.026
vt 0.006 -0.024
vt 0.003 -0.024
vt 0.003 -0.026
vt -0 -0.0015
vt 0.01 -0.0015
vt 0.01 0.0015
vt 0 0.0015
vt -0 -0.001
vt 0.01 -0.001
vt 0.01 0.001
vt 0 0.001
vt 0 0.0015
vt -0.01 0.0015
vt -0.01 -0.0015
vt 0 -0.0015
f 1/1/1 2/2/1 3/3/1
f 3/3/1 4/4/1 1/1/1
f 5/5/2 4/6/2 3/7/2
f 3/7/2 6/8/2 5/5/2
f 5/9/3 6/10/3 7/11/3
f 7/11/3 8/12/3 5/9/3
f 8/13/4 1/14/4 4/15/4
f 4/15/4 5/16/4 8/13/4
f 7/17/5 2/18/5 1/19/5
f 1/19/5 8/20/5 7/17/5
f 6/21/6 3/22/6 2/23/6
f 2/23/6 7/24/6 6/21/6
