g ___09
v 0.0395 0.0185 0.002 0.494118 0.494118 0.52549
v 0.0395 0.0185 0 0.494118 0.494118 0.52549
v 0.0445 0.0185 0 0.494118 0.494118 0.52549
v 0.0445 0.0185 0.002 0.494118 0.494118 0.52549
v 0.0395 0.0235 0.002 0.494118 0.494118 0.52549
v 0.0395 0.0235 0 0.494118 0.494118 0.52549
v 0.0445 0.0235 0.002 0.494118 0.494118 0.52549
v 0.0445 0.0235 0 0.494118 0.494118 0.52549
v 0.0430736 0.0226705 0 0.494118 0.494118 0.52549
v 0.0430736 0.019315 0 0.494118 0.494118 0.52549
v 0.0401962 0.0210414 0 0.494118 0.494118 0.52549
v 0.0430736 0.019315 0.002 0.494118 0.494118 0.52549
v 0.0401962 0.0210414 0.002 0.494118 0.494118 0.52549
v 0.0430736 0.0226705 0.002 0.494118 0.494118 0.52549
vn 0 -1 0
vn -1 0 0
vn 0 1 0
vn 1 0 -0
vn -0 -0 -1
vn 0 0 1
vn 0.4927 -0.870199 -0
vn 0.514496 0.857493 -0
vn -1 -0 0
vt -0 -0.0025
vt 0.002 -0.0025
vt 0.002 0.0025
vt 0 0.0025
vt 0 0.0025
vt -0.002 0.0025
vt -0.002 -0.0025
vt 0 -0.0025
vt 0 0.0025
vt -0.002 0.0025
vt -0.002 -0.0025
vt 0 -0.0025
vt -0 -0.0025
vt 0.002 -0.0025
vt 0.002 0.0025
vt 0 0.0025
vt 0.0235 -0.0395
vt 0.0235 -0.0445
vt 0.0226705 -0.0430736
vt 0.0185 -0.0445
vt 0.019315 -0.0430736
vt 0.0185 -0.0395
vt 0.0210414 -0.0401962
vt 0.0185 -0.0395
vt 0.0185 -0.0445
vt 0.019315 -0.0430736
vt 0.0235 -0.0395
vt 0.0210414 -0.0401962
vt 0.0226705 -0.0430736
vt 0.0235 -0.0445
vt 0.00165328 0
vt 0.00165328 -0.002
vt -0.00165328 -0.002
vt -0.00165328 0
vt 0.00167778 0
vt 0.00167778 -0.002
vt -0.00167778 -0.002
vt -0.00167778 0
vt 0 0.00167778
vt 0.002 0.00167778
vt 0.002 -0.00167778
vt -0 -0.00167778
f 1/1/1 2/2/1 3/3/1
f 3/3/1 4/4/1 1/1/1
f 5/5/2 6/6/2 2/7/2
f 2/7/2 1/8/2 5/5/2
f 7/9/3 8/10/3 6/11/3
f 6/11/3 5/12/3 7/9/3
f 4/13/4 3/14/4 8/15/4
f 8/15/4 7/16/4 4/13/4
f 6/17/5 8/18/5 9/19/5
f 3/20/5 10/21/5 9/19/5
f 2/22/5 11/23/5 10/21/5
f 9/19/5 8/18/5 3/20/5
f 2/22/5 6/17/5 11/23/5
f 10/21/5 3/20/5 2/22/5
f 9/19/5 11/23/5 6/17/5
f 1/24/6 4/25/6 12/26/6
f 5/27/6 13/28/6 14/29/6
f 12/26/6 13/28/6 1/24/6
f 4/25/6 7/30/6 14/29/6
f 13/28/6 5/27/6 1/24/6
f 14/29/6 7/30/6 5/27/6
f 14/29/6 12/26/6 4/25/6
f 13/31/7 11/32/7 9/33/7
f 9/33/7 14/34/7 13/31/7
f 12/35/8 10/36/8 11/37/8
f 11/37/8 13/38/8 12/35/8
f 14/39/9 9/40/9 10/41/9
f 10/41/9 12/42/9 14/39/9
