# Blender 3.3.0
# www.blender.org
mtllib typeC_new.mtl
o type_C
v 0.009823 -0.011336 0.030000
v 0.011336 -0.009823 -0.030000
v 0.011336 -0.009823 0.030000
v -0.012619 0.008110 0.030000
v -0.013644 0.006231 -0.030000
v -0.013644 0.006231 0.030000
v -0.012619 0.008110 -0.030000
v 0.012619 -0.008110 -0.030000
v 0.012619 -0.008110 0.030000
v -0.014392 0.004226 -0.030000
v -0.014392 0.004226 0.030000
v 0.013644 -0.006231 -0.030000
v 0.013644 -0.006231 0.030000
v -0.014847 0.002135 -0.030000
v -0.014847 0.002135 0.030000
v 0.015000 0.000000 -0.030000
v 0.014847 0.002135 -0.030000
v 0.015000 -0.000000 0.030000
v 0.014847 0.002135 0.030000
v 0.014392 -0.004226 -0.030000
v 0.014392 -0.004226 0.030000
v -0.015000 0.000000 -0.030000
v -0.015000 -0.000000 0.030000
v 0.014392 0.004226 -0.030000
v 0.014392 0.004226 0.030000
v 0.014847 -0.002135 -0.030000
v 0.014847 -0.002135 0.030000
v -0.014847 -0.002135 -0.030000
v -0.014847 -0.002135 0.030000
v 0.013644 0.006231 -0.030000
v 0.013644 0.006231 0.030000
v -0.014392 -0.004226 -0.030000
v -0.014392 -0.004226 0.030000
v 0.012619 0.008110 -0.030000
v 0.012619 0.008110 0.030000
v -0.013644 -0.006231 -0.030000
v -0.013644 -0.006231 0.030000
v 0.011336 0.009823 -0.030000
v 0.011336 0.009823 0.030000
v -0.012619 -0.008110 -0.030000
v -0.012619 -0.008110 0.030000
v 0.009823 0.011336 -0.030000
v 0.009823 0.011336 0.030000
v -0.011336 -0.009823 -0.030000
v -0.011336 -0.009823 0.030000
v 0.008110 0.012619 -0.030000
v 0.008110 0.012619 0.030000
v -0.009823 -0.011336 -0.030000
v -0.009823 -0.011336 0.030000
v 0.006231 0.013644 -0.030000
v 0.006231 0.013644 0.030000
v -0.008110 -0.012619 -0.030000
v -0.008110 -0.012619 0.030000
v 0.004226 0.014392 -0.030000
v 0.004226 0.014392 0.030000
v -0.006231 -0.013644 -0.030000
v -0.006231 -0.013644 0.030000
v 0.002135 0.014847 -0.030000
v 0.002135 0.014847 0.030000
v -0.004226 -0.014392 -0.030000
v -0.004226 -0.014392 0.030000
v 0.000000 0.015000 -0.030000
v 0.000000 0.015000 0.030000
v -0.002135 -0.014847 -0.030000
v -0.002135 -0.014847 0.030000
v -0.002135 0.014847 -0.030000
v -0.002135 0.014847 0.030000
v 0.000000 -0.015000 -0.030000
v 0.000000 -0.015000 0.030000
v -0.004226 0.014392 -0.030000
v -0.004226 0.014392 0.030000
v 0.002135 -0.014847 -0.030000
v 0.002135 -0.014847 0.030000
v -0.006231 0.013644 -0.030000
v -0.006231 0.013644 0.030000
v 0.004226 -0.014392 -0.030000
v 0.004226 -0.014392 0.030000
v -0.008110 0.012619 -0.030000
v -0.008110 0.012619 0.030000
v 0.006231 -0.013644 -0.030000
v 0.006231 -0.013644 0.030000
v -0.009823 0.011336 -0.030000
v -0.009823 0.011336 0.030000
v 0.008110 -0.012619 -0.030000
v 0.008110 -0.012619 0.030000
v -0.011336 0.009823 -0.030000
v -0.011336 0.009823 0.030000
v 0.009823 -0.011336 -0.030000
vn 0.7071 -0.7071 -0.0000
vn -0.8777 0.4792 -0.0000
vn 0.8005 -0.5993 -0.0000
vn -0.9369 0.3495 -0.0000
vn 0.8777 -0.4792 -0.0000
vn -0.9771 0.2126 -0.0000
vn 0.9975 0.0713 -0.0000
vn 0.9369 -0.3495 -0.0000
vn -0.9975 0.0713 -0.0000
vn 0.9771 0.2126 -0.0000
vn 0.9771 -0.2126 -0.0000
vn 0.9975 -0.0713 -0.0000
vn -0.9975 -0.0713 -0.0000
vn 0.9369 0.3495 -0.0000
vn -0.9771 -0.2126 -0.0000
vn 0.8777 0.4792 -0.0000
vn -0.9369 -0.3495 -0.0000
vn 0.8005 0.5993 -0.0000
vn -0.8777 -0.4792 -0.0000
vn 0.7071 0.7071 -0.0000
vn -0.8005 -0.5993 -0.0000
vn 0.5993 0.8005 -0.0000
vn -0.7071 -0.7071 -0.0000
vn 0.4792 0.8777 -0.0000
vn -0.5993 -0.8005 -0.0000
vn 0.3495 0.9369 -0.0000
vn -0.4792 -0.8777 -0.0000
vn 0.2126 0.9771 -0.0000
vn -0.3495 -0.9369 -0.0000
vn 0.0713 0.9975 -0.0000
vn -0.2126 -0.9771 -0.0000
vn -0.0713 0.9975 -0.0000
vn -0.0713 -0.9975 -0.0000
vn -0.2126 0.9771 -0.0000
vn 0.0713 -0.9975 -0.0000
vn -0.3495 0.9369 -0.0000
vn 0.2126 -0.9771 -0.0000
vn -0.4792 0.8777 -0.0000
vn 0.3495 -0.9369 -0.0000
vn -0.5993 0.8005 -0.0000
vn 0.4792 -0.8777 -0.0000
vn -0.7071 0.7071 -0.0000
vn 0.5993 -0.8005 -0.0000
vn -0.8005 0.5993 -0.0000
vn -0.0000 -0.0000 -1.0000
vn -0.0000 -0.0000 1.0000
s 0
f 1//1 2//1 3//1
f 4//2 5//2 6//2
f 7//2 5//2 4//2
f 2//3 8//3 3//3
f 3//3 8//3 9//3
f 6//4 10//4 11//4
f 5//4 10//4 6//4
f 8//5 12//5 9//5
f 9//5 12//5 13//5
f 11//6 14//6 15//6
f 16//7 17//7 18//7
f 18//7 17//7 19//7
f 10//6 14//6 11//6
f 12//8 20//8 13//8
f 13//8 20//8 21//8
f 15//9 22//9 23//9
f 17//10 24//10 19//10
f 14//9 22//9 15//9
f 19//10 24//10 25//10
f 20//11 26//11 21//11
f 21//11 26//11 27//11
f 27//12 26//12 18//12
f 23//13 28//13 29//13
f 26//12 16//12 18//12
f 22//13 28//13 23//13
f 24//14 30//14 25//14
f 25//14 30//14 31//14
f 29//15 32//15 33//15
f 28//15 32//15 29//15
f 30//16 34//16 31//16
f 31//16 34//16 35//16
f 33//17 36//17 37//17
f 32//17 36//17 33//17
f 34//18 38//18 35//18
f 35//18 38//18 39//18
f 37//19 40//19 41//19
f 36//19 40//19 37//19
f 38//20 42//20 39//20
f 39//20 42//20 43//20
f 41//21 44//21 45//21
f 42//22 46//22 43//22
f 40//21 44//21 41//21
f 43//22 46//22 47//22
f 44//23 48//23 45//23
f 45//23 48//23 49//23
f 46//24 50//24 47//24
f 47//24 50//24 51//24
f 48//25 52//25 49//25
f 49//25 52//25 53//25
f 50//26 54//26 51//26
f 51//26 54//26 55//26
f 52//27 56//27 53//27
f 53//27 56//27 57//27
f 54//28 58//28 55//28
f 55//28 58//28 59//28
f 56//29 60//29 57//29
f 57//29 60//29 61//29
f 58//30 62//30 59//30
f 59//30 62//30 63//30
f 60//31 64//31 61//31
f 61//31 64//31 65//31
f 62//32 66//32 63//32
f 63//32 66//32 67//32
f 64//33 68//33 65//33
f 65//33 68//33 69//33
f 66//34 70//34 67//34
f 67//34 70//34 71//34
f 68//35 72//35 69//35
f 69//35 72//35 73//35
f 70//36 74//36 71//36
f 71//36 74//36 75//36
f 72//37 76//37 73//37
f 73//37 76//37 77//37
f 74//38 78//38 75//38
f 75//38 78//38 79//38
f 76//39 80//39 77//39
f 77//39 80//39 81//39
f 78//40 82//40 79//40
f 79//40 82//40 83//40
f 80//41 84//41 81//41
f 81//41 84//41 85//41
f 83//42 86//42 87//42
f 82//42 86//42 83//42
f 84//43 88//43 85//43
f 85//43 88//43 1//43
f 87//44 7//44 4//44
f 86//44 7//44 87//44
f 88//1 2//1 1//1
f 54//45 50//45 58//45
f 48//45 56//45 52//45
f 40//45 36//45 44//45
f 44//45 36//45 48//45
f 50//45 46//45 58//45
f 17//45 34//45 24//45
f 24//45 34//45 30//45
f 26//45 34//45 17//45
f 34//45 42//45 38//45
f 66//45 42//45 26//45
f 58//45 42//45 66//45
f 56//45 64//45 60//45
f 26//45 42//45 34//45
f 46//45 42//45 58//45
f 32//45 68//45 36//45
f 56//45 68//45 64//45
f 48//45 68//45 56//45
f 36//45 68//45 48//45
f 28//45 22//45 32//45
f 22//45 14//45 32//45
f 68//45 80//45 72//45
f 72//45 80//45 76//45
f 32//45 80//45 68//45
f 5//45 7//45 10//45
f 7//45 86//45 10//45
f 10//45 82//45 14//45
f 80//45 82//45 84//45
f 84//45 82//45 88//45
f 14//45 82//45 32//45
f 32//45 82//45 80//45
f 86//45 82//45 10//45
f 88//45 8//45 2//45
f 88//45 12//45 8//45
f 78//45 74//45 82//45
f 88//45 26//45 12//45
f 74//45 26//45 82//45
f 70//45 26//45 74//45
f 12//45 26//45 20//45
f 82//45 26//45 88//45
f 70//45 66//45 26//45
f 26//45 17//45 16//45
f 62//45 58//45 66//45
f 51//46 55//46 59//46
f 57//46 49//46 53//46
f 37//46 41//46 45//46
f 37//46 45//46 49//46
f 47//46 51//46 59//46
f 35//46 19//46 25//46
f 35//46 25//46 31//46
f 35//46 27//46 19//46
f 43//46 35//46 39//46
f 43//46 67//46 27//46
f 43//46 59//46 67//46
f 65//46 57//46 61//46
f 43//46 27//46 35//46
f 43//46 47//46 59//46
f 69//46 33//46 37//46
f 69//46 57//46 65//46
f 69//46 49//46 57//46
f 69//46 37//46 49//46
f 23//46 29//46 33//46
f 15//46 23//46 33//46
f 81//46 69//46 73//46
f 81//46 73//46 77//46
f 81//46 33//46 69//46
f 4//46 6//46 11//46
f 87//46 4//46 11//46
f 83//46 11//46 15//46
f 83//46 81//46 85//46
f 83//46 85//46 1//46
f 83//46 15//46 33//46
f 83//46 33//46 81//46
f 83//46 87//46 11//46
f 9//46 1//46 3//46
f 13//46 1//46 9//46
f 75//46 79//46 83//46
f 27//46 1//46 13//46
f 27//46 75//46 83//46
f 27//46 71//46 75//46
f 27//46 13//46 21//46
f 27//46 83//46 1//46
f 67//46 71//46 27//46
f 19//46 27//46 18//46
f 59//46 63//46 67//46
